<svg xmlns="http://www.w3.org/2000/svg" width="512" height="512" viewBox="0 0 512 512">
  <g id="Group_7" data-name="Group 7" transform="translate(-704 -284)">
    <g id="Group_6" data-name="Group 6" transform="translate(-32 29)">
      <path id="Exclusion_1" data-name="Exclusion 1" d="M256,512a257.892,257.892,0,0,1-51.593-5.2,254.6,254.6,0,0,1-91.539-38.52,256.748,256.748,0,0,1-92.75-112.633A254.711,254.711,0,0,1,5.2,307.593a258.5,258.5,0,0,1,0-103.186,254.6,254.6,0,0,1,38.52-91.539,256.748,256.748,0,0,1,112.632-92.75A254.709,254.709,0,0,1,204.407,5.2a258.5,258.5,0,0,1,103.186,0,254.6,254.6,0,0,1,91.539,38.52,256.747,256.747,0,0,1,92.75,112.632A254.71,254.71,0,0,1,506.8,204.407a258.5,258.5,0,0,1,0,103.186,254.6,254.6,0,0,1-38.52,91.539,256.748,256.748,0,0,1-112.633,92.75A254.713,254.713,0,0,1,307.593,506.8,257.9,257.9,0,0,1,256,512Zm.5-482C131.607,30,30,131.607,30,256.5S131.607,483,256.5,483,483,381.393,483,256.5,381.393,30,256.5,30Z" transform="translate(736 255)" fill="#e97133"/>
    </g>
    <g id="add" transform="translate(-11 215)">
      <path id="Union_1" data-name="Union 1" d="M96,220V124H0V97H96V0h27V97h97v27H123v96Z" transform="translate(861 215)" fill="#eb7822"/>
    </g>
  </g>
</svg>
