<svg xmlns="http://www.w3.org/2000/svg" width="417.958" height="386.612" viewBox="0 0 417.958 386.612">
  <g id="Group_3" data-name="Group 3" transform="translate(-752 -347)">
    <g id="Group_2" data-name="Group 2">
      <g id="chat" transform="translate(752 331.326)">
        <g id="Group_1" data-name="Group 1">
          <path id="Path_1" data-name="Path 1" d="M282.122,151.51H125.388a15.673,15.673,0,0,1,0-31.346H282.123a15.673,15.673,0,1,1,0,31.346Z" fill="#0b4983"/>
          <path id="Path_2" data-name="Path 2" d="M282.122,229.878H125.388a15.673,15.673,0,1,1,0-31.346H282.123a15.673,15.673,0,1,1,0,31.346Z" fill="#0b4983"/>
        </g>
        <path id="Path_3" data-name="Path 3" d="M271.673,402.286a15.648,15.648,0,0,1-9.4-3.135l-95.086-70.008H15.673A15.394,15.394,0,0,1,0,313.469V31.347A15.393,15.393,0,0,1,15.673,15.674H402.285a15.393,15.393,0,0,1,15.673,15.673V313.469a15.393,15.393,0,0,1-15.673,15.673H287.347v57.469a15.852,15.852,0,0,1-8.359,14.106A18.421,18.421,0,0,1,271.673,402.286ZM31.347,297.8H172.408a15.648,15.648,0,0,1,9.4,3.135L256,355.788V313.47A15.393,15.393,0,0,1,271.673,297.8H386.612V47.02H31.347Z" fill="#0b4983"/>
      </g>
    </g>
  </g>
</svg>
