<svg xmlns="http://www.w3.org/2000/svg" width="512" height="512" viewBox="0 0 512 512">
  <g id="Group_9" data-name="Group 9" transform="translate(-704 -284)">
    <g id="Group_8" data-name="Group 8">
      <g id="Group_7" data-name="Group 7">
        <g id="Group_6" data-name="Group 6" transform="translate(-32 29)">
          <path id="Exclusion_1" data-name="Exclusion 1" d="M256,512a257.892,257.892,0,0,1-51.593-5.2,254.6,254.6,0,0,1-91.539-38.52,256.748,256.748,0,0,1-92.75-112.633A254.711,254.711,0,0,1,5.2,307.593a258.5,258.5,0,0,1,0-103.186,254.6,254.6,0,0,1,38.52-91.539,256.748,256.748,0,0,1,112.632-92.75A254.709,254.709,0,0,1,204.407,5.2a258.5,258.5,0,0,1,103.186,0,254.6,254.6,0,0,1,91.539,38.52,256.747,256.747,0,0,1,92.75,112.632A254.71,254.71,0,0,1,506.8,204.407a258.5,258.5,0,0,1,0,103.186,254.6,254.6,0,0,1-38.52,91.539,256.748,256.748,0,0,1-112.633,92.75A254.713,254.713,0,0,1,307.593,506.8,257.9,257.9,0,0,1,256,512Zm.5-482C131.607,30,30,131.607,30,256.5S131.607,483,256.5,483,483,381.393,483,256.5,381.393,30,256.5,30Z" transform="translate(736 255)" fill="#e97133"/>
        </g>
      </g>
      <g id="dashboard" transform="translate(112.278 0.263)">
        <g id="dashboard-2" data-name="dashboard" transform="translate(591.947 283.947)">
          <g id="Group_5" data-name="Group 5" transform="translate(66.79 66.79)">
            <g id="Group_4" data-name="Group 4">
              <path id="Path_3" data-name="Path 3" d="M371.384,103.925c-.134-.145-.178-.345-.334-.5s-.345-.189-.5-.334c-73.715-73.467-192.972-73.453-266.669.033-.145.122-.323.167-.456.3s-.178.312-.3.456a189.219,189.219,0,1,0,322.8,147.238c.334-4.608.545-9.239.545-13.881a188.638,188.638,0,0,0-55.09-133.312Zm-1.013,234.064a163.906,163.906,0,0,1-11,12.979c-.7.746-1.391,1.5-2.1,2.237q-5.811,5.994-12.178,11.388c-.746.635-1.514,1.236-2.271,1.859a167.835,167.835,0,0,1-13.67,10.108c-.49.323-.991.6-1.48.913a165.937,165.937,0,0,1-14.7,8.46c-.412.212-.8.445-1.213.646A168.819,168.819,0,0,1,296,393.391c-.879.334-1.748.679-2.627.991a165.62,165.62,0,0,1-16.007,4.831c-.991.245-1.981.479-2.983.7a167.824,167.824,0,0,1-16.72,2.994c-.79.1-1.592.156-2.382.234a152.871,152.871,0,0,1-36.089,0c-.79-.089-1.592-.145-2.382-.234a164.686,164.686,0,0,1-16.72-2.994c-.991-.234-1.993-.456-2.983-.7a164.477,164.477,0,0,1-16-4.831c-.891-.323-1.759-.668-2.649-1a169.642,169.642,0,0,1-15.729-6.8c-.423-.211-.813-.445-1.236-.657a167.777,167.777,0,0,1-14.66-8.438c-.5-.323-1.013-.612-1.514-.935a169.261,169.261,0,0,1-13.647-10.1c-.768-.623-1.536-1.236-2.293-1.87a165.305,165.305,0,0,1-12.167-11.376c-.712-.735-1.4-1.48-2.093-2.226a164.374,164.374,0,0,1-11.009-13c-.134-.178-.256-.367-.4-.545H370.783C370.638,337.611,370.5,337.8,370.371,337.989Zm-21.818-89.62h54.979c-.178,2.66-.178,5.343-.49,7.981-.067.579-.1,1.158-.167,1.725a166.406,166.406,0,0,1-3.284,17.833c-.2.835-.367,1.67-.579,2.493a167.647,167.647,0,0,1-5.265,16.842c-.334.9-.668,1.814-1.024,2.716a166.511,166.511,0,0,1-7.236,16.007c-.2.4-.423.8-.623,1.191H89.61c-.212-.39-.423-.79-.635-1.18a163.823,163.823,0,0,1-7.236-16.007c-.356-.9-.69-1.8-1.024-2.716a167.642,167.642,0,0,1-5.265-16.842c-.211-.824-.378-1.67-.579-2.493a169.2,169.2,0,0,1-3.284-17.833c-.067-.568-.1-1.147-.167-1.725-.3-2.649-.312-5.321-.49-7.981h54.99a11.132,11.132,0,1,0,0-22.263H70.831a166.066,166.066,0,0,1,40.9-98.637l38.927,38.927a11.13,11.13,0,1,0,15.74-15.74l-38.93-38.927a166,166,0,0,1,98.637-40.9v55.079a11.132,11.132,0,1,0,22.264,0V70.831a166.049,166.049,0,0,1,98.637,40.909L251.54,207.193a33.006,33.006,0,0,0-14.3-3.351,33.4,33.4,0,1,0,33.395,33.4,32.848,32.848,0,0,0-3.351-14.3l95.465-95.453a166.063,166.063,0,0,1,40.9,98.626h-55.09a11.132,11.132,0,1,0,0,22.264Z" transform="translate(-48 -48)" fill="#e97133"/>
            </g>
          </g>
        </g>
      </g>
    </g>
  </g>
</svg>
