<svg xmlns="http://www.w3.org/2000/svg" width="512" height="512" viewBox="0 0 512 512">
  <g id="Group_18" data-name="Group 18" transform="translate(-704 -284)">
    <g id="Group_17" data-name="Group 17">
      <g id="Group_16" data-name="Group 16">
        <g id="Group_9" data-name="Group 9">
          <g id="Group_8" data-name="Group 8">
            <g id="Group_7" data-name="Group 7">
              <g id="Group_6" data-name="Group 6" transform="translate(-32 29)">
                <path id="Exclusion_1" data-name="Exclusion 1" d="M256,512a257.892,257.892,0,0,1-51.593-5.2,254.6,254.6,0,0,1-91.539-38.52,256.748,256.748,0,0,1-92.75-112.633A254.711,254.711,0,0,1,5.2,307.593a258.5,258.5,0,0,1,0-103.186,254.6,254.6,0,0,1,38.52-91.539,256.748,256.748,0,0,1,112.632-92.75A254.709,254.709,0,0,1,204.407,5.2a258.5,258.5,0,0,1,103.186,0,254.6,254.6,0,0,1,91.539,38.52,256.747,256.747,0,0,1,92.75,112.632A254.71,254.71,0,0,1,506.8,204.407a258.5,258.5,0,0,1,0,103.186,254.6,254.6,0,0,1-38.52,91.539,256.748,256.748,0,0,1-112.633,92.75A254.713,254.713,0,0,1,307.593,506.8,257.9,257.9,0,0,1,256,512Zm.5-482C131.607,30,30,131.607,30,256.5S131.607,483,256.5,483,483,381.393,483,256.5,381.393,30,256.5,30Z" transform="translate(736 255)" fill="#e97133"/>
              </g>
            </g>
          </g>
        </g>
        <g id="layers" transform="translate(785 355)">
          <g id="Group_11" data-name="Group 11" transform="translate(0 32)">
            <g id="Group_10" data-name="Group 10">
              <path id="Path_1" data-name="Path 1" d="M346.613,120.464,178.652,32.833a7.283,7.283,0,0,0-6.762,0L3.93,120.464a7.292,7.292,0,0,0,0,12.941l167.96,87.632a7.253,7.253,0,0,0,6.748,0L346.6,133.4a7.3,7.3,0,0,0,.015-12.941ZM175.263,198.343,31.091,126.935,175.263,55.525l144.172,71.409Z" transform="translate(0 -32)" fill="#e97133"/>
            </g>
          </g>
          <g id="Group_13" data-name="Group 13" transform="translate(0 165.322)">
            <g id="Group_12" data-name="Group 12">
              <path id="Path_2" data-name="Path 2" d="M346.613,240.287l-24.42-12.736c-3.563-1.826-12.989-2.482-14.859,1.1s-2.482,9.989,1.1,11.859l12,6.266L175.263,319.18,30.091,246.771l12.02-6.251c3.579-1.87,2.966-7.28,1.1-10.859s-11.3-3.922-14.859-2.1L3.929,240.3a7.292,7.292,0,0,0,0,12.941l167.96,87.632a7.253,7.253,0,0,0,6.748,0L346.6,253.242a7.311,7.311,0,0,0,.015-12.955Z" transform="translate(0 -226.738)" fill="#e97133"/>
            </g>
          </g>
          <g id="Group_15" data-name="Group 15" transform="translate(0 223.743)">
            <g id="Group_14" data-name="Group 14">
              <path id="Path_3" data-name="Path 3" d="M346.613,325.62l-24.42-12.736c-3.563-1.826-12.989-2.482-14.859,1.1s-2.482,9.989,1.1,11.859l12.006,6.266L175.263,404.514,30.091,332.1l12.02-6.251c3.579-1.87,2.966-7.28,1.1-10.859s-11.3-3.937-14.859-2.1L3.929,325.635a7.292,7.292,0,0,0,0,12.94l167.96,87.632a7.253,7.253,0,0,0,6.748,0L346.6,338.575a7.311,7.311,0,0,0,.015-12.955Z" transform="translate(0 -312.071)" fill="#e97133"/>
            </g>
          </g>
        </g>
      </g>
    </g>
  </g>
</svg>
