<svg xmlns="http://www.w3.org/2000/svg" width="512" height="512" viewBox="0 0 512 512">
  <g id="Group_6" data-name="Group 6" transform="translate(-736 -255)">
    <g id="Group_5" data-name="Group 5" transform="translate(256 95)">
      <g id="priority" transform="translate(-364.525 -124.957)">
        <g id="priority-2" data-name="priority" transform="translate(202.526 -7.04)">
          <g id="priority-3" data-name="priority" transform="translate(785 404)">
            <g id="Group_1" data-name="Group 1" transform="translate(3.456 4.814)">
              <path id="Path_1" data-name="Path 1" d="M145.794,374.347h52.19a8.7,8.7,0,0,0,8.7-8.7V191.678h17.4a8.7,8.7,0,0,0,7.237-13.523L179.125,99.87a8.7,8.7,0,0,0-14.474,0L112.46,178.159a8.7,8.7,0,0,0,7.237,13.523h17.4V365.649a8.7,8.7,0,0,0,8.7,8.7Zm-9.842-200.062,35.937-53.906,35.937,53.906h-9.842a8.7,8.7,0,0,0-8.7,8.7V356.95H154.492V182.984a8.7,8.7,0,0,0-8.7-8.7Z" transform="translate(-111 -96)" fill="#e97133"/>
              <path id="Path_2" data-name="Path 2" d="M347.984,96h-52.19a8.7,8.7,0,0,0-8.7,8.7V278.666H269.7a8.7,8.7,0,0,0-7.237,13.523l52.19,78.285a8.7,8.7,0,0,0,14.474,0l52.19-78.285a8.7,8.7,0,0,0-7.237-13.523h-17.4V104.7a8.7,8.7,0,0,0-8.695-8.7Zm9.842,200.062-35.937,53.906-35.937-53.906h9.842a8.7,8.7,0,0,0,8.7-8.7V113.4h34.793V287.363a8.7,8.7,0,0,0,8.7,8.7Z" transform="translate(-130.525 -96)" fill="#e97133"/>
            </g>
          </g>
        </g>
      </g>
    </g>
    <path id="Exclusion_1" data-name="Exclusion 1" d="M256,512a257.892,257.892,0,0,1-51.593-5.2,254.6,254.6,0,0,1-91.539-38.52,256.748,256.748,0,0,1-92.75-112.633A254.711,254.711,0,0,1,5.2,307.593a258.5,258.5,0,0,1,0-103.186,254.6,254.6,0,0,1,38.52-91.539,256.748,256.748,0,0,1,112.632-92.75A254.709,254.709,0,0,1,204.407,5.2a258.5,258.5,0,0,1,103.186,0,254.6,254.6,0,0,1,91.539,38.52,256.747,256.747,0,0,1,92.75,112.632A254.71,254.71,0,0,1,506.8,204.407a258.5,258.5,0,0,1,0,103.186,254.6,254.6,0,0,1-38.52,91.539,256.748,256.748,0,0,1-112.633,92.75A254.713,254.713,0,0,1,307.593,506.8,257.9,257.9,0,0,1,256,512Zm.5-482C131.607,30,30,131.607,30,256.5S131.607,483,256.5,483,483,381.393,483,256.5,381.393,30,256.5,30Z" transform="translate(736 255)" fill="#e97133"/>
  </g>
</svg>
